Coordinates
version=1
nRows=12
nColumns=34
inDegrees=yes

Units are S.I. units (second, meters, Newtons, ...)
If the header above contains a line with 'inDegrees', this indicates whether rotational values are in degrees (yes) or radians (no).

endheader
time	pelvis_tilt	pelvis_list	pelvis_rotation	pelvis_tx	pelvis_ty	pelvis_tz	hip_flexion_r	hip_adduction_r	hip_rotation_r	knee_angle_r	ankle_angle_r	subtalar_angle_r	mtp_angle_r	hip_flexion_l	hip_adduction_l	hip_rotation_l	knee_angle_l	ankle_angle_l	subtalar_angle_l	mtp_angle_l	lumbar_extension	lumbar_bending	lumbar_rotation	arm_flex_r	arm_add_r	arm_rot_r	elbow_flex_r	pro_sup_r	arm_flex_l	arm_add_l	arm_rot_l	elbow_flex_l	pro_sup_l
      0.00000000	      0.36650780	     -2.15851703	     -5.75356816	      0.49308104	      0.98761105	     -0.09485269	     21.22571428	      1.82826981	      2.97362630	     25.90241413	      0.65251812	    -20.68375758	      0.00000000	      2.38470411	      5.47702833	      4.40015338	     12.18194877	      5.21692956	     -9.80469004	      0.00000000	     -5.04268536	     -0.57374982	      0.86860061	     55.75077434	     20.19931778	     64.42197064	    150.00035077	    111.13130104	     70.21975030	     21.70863754	     73.33473116	    117.47756660	    106.06154374
      0.01666670	     -0.39325615	     -2.20415056	     -4.14467009	      0.49849220	      0.98202761	     -0.09523383	     20.23373370	      1.86218117	      2.48155617	     24.67143405	      1.99605614	    -16.23625553	      0.00000000	      2.48084831	      5.63957540	      6.25591814	     11.09074136	      5.56180835	     -9.39991019	      0.00000000	     -1.77162046	     -0.46664554	     -4.61994657	     58.00149974	     29.24479967	     73.42610103	    147.49309149	    112.88948422	     69.61682403	     18.05455367	     71.67011106	    119.62238426	    104.01364323
      0.03333330	     -0.99257787	     -2.19337617	     -4.40343957	      0.50003490	      0.98512395	     -0.09479220	     20.16187365	      1.95520985	      2.54381608	     24.90106282	      3.34477535	    -15.60090393	      0.00000000	      3.21885157	      5.70201032	      4.56814124	     11.55156437	      5.78890306	     -8.60587977	      0.00000000	     -0.92309539	     -0.51811767	     -2.99331441	     56.21297044	     26.08957048	     67.76146209	    150.00035077	    113.96120632	     69.27870649	     17.17976872	     71.61158573	    119.95490433	    102.05090123
      0.05000000	     -0.85306691	     -2.13313668	     -4.15460825	      0.50244687	      0.98457841	     -0.09413106	     19.96566559	      1.92379096	      2.55444047	     26.62293821	      3.65319250	    -16.22954748	      0.00000000	      2.71693909	      5.82588783	      4.48522599	     11.38241795	      5.99147539	     -7.96109821	      0.00000000	     -1.33690177	     -0.44439734	     -2.07257692	     54.42834521	     22.79047794	     62.67133893	    150.00035077	    115.91905832	     68.48068428	     17.66410108	     72.80701827	    119.39694179	     98.10101255
      0.06666670	     -0.84180551	     -2.31766265	     -3.83558313	      0.50402544	      0.98389531	     -0.09454316	     19.81973937	      2.13729040	      2.69378588	     28.73914788	      4.66426057	    -17.04813165	      0.00000000	      2.53499619	      5.64790373	      4.16304801	     11.42544182	      6.14376391	     -8.04098639	      0.00000000	     -1.36404664	      0.19567894	     -1.97671067	     54.11486904	     21.25244198	     62.46614858	    150.00035077	    115.99193502	     68.24081432	     17.43194078	     73.15690431	    119.53700276	     97.88431995
      0.08333330	     -1.27432044	     -2.14508609	     -3.86375771	      0.50346753	      0.97819480	     -0.09381584	     20.73775458	      2.24488594	      3.38163167	     31.90326150	      5.49104122	    -18.36095250	      0.00000000	      3.13400275	      5.72104354	      3.21040206	     11.83654394	      6.71675163	     -7.46462191	      0.00000000	     -0.92050511	     -0.07560374	     -1.02004583	     53.68759370	     19.60224702	     57.24459956	    150.00035077	    115.98223415	     68.71911915	     18.76038603	     73.20670772	    118.87074023	     96.35752058
      0.10000000	     -1.47260734	     -2.05368336	     -3.48662096	      0.50524591	      0.97665663	     -0.09452841	     21.35013004	      2.06614085	      3.35353661	     35.58697357	      5.94459231	    -19.74554685	      0.00000000	      3.47800518	      5.79146914	      2.91164750	     12.21159508	      7.04006958	     -7.02131950	      0.00000000	     -0.51870230	     -0.64698582	     -1.62144243	     54.14866836	     19.91455600	     56.58827717	    150.00035077	    115.97415274	     68.99966419	     19.13997057	     73.12747899	    118.39571346	     95.32001211
      0.11666670	     -1.96132841	     -1.94772115	     -3.15069291	      0.50562909	      0.97498339	     -0.09472708	     22.18748185	      1.98655979	      3.60115390	     39.10282396	      6.31516272	    -21.20963110	      0.00000000	      4.11755628	      5.89443100	      2.56889463	     12.58215614	      7.60647399	     -5.97861355	      0.00000000	      0.43866907	     -0.79362448	     -2.09417029	     53.79577078	     20.37113131	     54.97283649	    150.00035077	    115.73529882	     68.93062867	     19.29867337	     72.96043813	    118.45738813	     93.45311697
      0.13333330	     -1.90033126	     -1.75770042	     -2.87905330	      0.50309331	      0.97799038	     -0.09548476	     22.54307888	      1.73950226	      3.56112430	     42.53841152	      6.13931212	    -21.91153204	      0.00000000	      4.15242220	      6.16679393	      2.59622480	     12.73129674	      7.45744537	     -5.65348789	      0.00000000	      0.12345723	     -1.27391877	     -2.24182242	     53.93885943	     20.24086289	     54.21484981	    150.00035077	    115.63167387	     69.38881659	     19.66384378	     72.98215681	    118.36233256	     92.91340742
      0.15000000	     -1.96535599	     -1.70010602	     -2.56709738	      0.50373050	      0.98098666	     -0.09479051	     22.54395955	      1.75146047	      3.52542062	     44.98655493	      5.10161718	    -22.87412451	      0.00000000	      4.16843059	      6.19515083	      2.32551626	     12.71371703	      7.16775121	     -5.02988359	      0.00000000	      0.24670216	     -1.40515309	     -2.49790694	     53.00959040	     20.29237737	     52.97977232	    150.00035077	    115.32425732	     69.19858214	     19.30136474	     73.94061784	    118.40232098	     91.41785589
      0.16666670	     -1.81485398	     -1.65641457	     -2.24215458	      0.50355960	      0.98257781	     -0.09505777	     22.29044375	      1.70823600	      3.33885500	     47.10533451	      4.02332013	    -22.50647834	      0.00000000	      4.03230317	      6.28006123	      2.48429660	     12.74377811	      6.74133951	     -4.67111121	      0.00000000	      0.01088550	     -1.37528282	     -2.53048784	     52.43768181	     19.99950236	     53.01593336	    150.00035077	    115.28470815	     68.87231827	     19.16457382	     74.16560967	    118.56880854	     91.22127029
      0.18333330	     -1.63063859	     -1.61317827	     -2.28512464	      0.50372042	      0.98165709	     -0.09525091	     22.14937214	      1.82904008	      3.51207825	     49.02972072	      1.91842685	    -23.60726543	      0.00000000	      3.73709956	      6.35232946	      2.33143632	     12.53688133	      6.70373222	     -4.07022013	      0.00000000	     -0.27033351	     -1.21259479	     -2.90899917	     52.22885880	     20.55155476	     52.92527741	    150.00035077	    114.89428737	     68.63259190	     18.83941237	     74.65217441	    119.26535317	     89.67276439
